<?xml version="1.0" encoding="UTF-8" standalone="no"?>
<!-- Created with Inkscape (http://www.inkscape.org/) -->

<svg
   xmlns:dc="http://purl.org/dc/elements/1.1/"
   xmlns:cc="http://creativecommons.org/ns#"
   xmlns:rdf="http://www.w3.org/1999/02/22-rdf-syntax-ns#"
   xmlns:svg="http://www.w3.org/2000/svg"
   xmlns="http://www.w3.org/2000/svg"
   xmlns:xlink="http://www.w3.org/1999/xlink"
   xmlns:sodipodi="http://sodipodi.sourceforge.net/DTD/sodipodi-0.dtd"
   xmlns:inkscape="http://www.inkscape.org/namespaces/inkscape"
   width="559.66852"
   height="137.3364"
   viewBox="0 0 148.08 36.336921"
   version="1.1"
   id="svg23"
   inkscape:version="0.92.1 r15371"
   sodipodi:docname="overview.svg">
  <defs
     id="defs17">
    <radialGradient
       id="radialGradient10463"
       gradientUnits="userSpaceOnUse"
       cy="523.60999"
       cx="551.91998"
       gradientTransform="matrix(1,0,0,0.94783,0,27.319)"
       r="59.208">
      <stop
         id="stop2803"
         stop-color="#ececec"
         offset="0" />
      <stop
         id="stop2805"
         stop-color="#ececec"
         stop-opacity="0"
         offset="1" />
    </radialGradient>
    <radialGradient
       inkscape:collect="always"
       xlink:href="#radialGradient10465"
       id="radialGradient146"
       gradientUnits="userSpaceOnUse"
       gradientTransform="matrix(1,0,0,0.54286,0,184.93)"
       cx="357.64999"
       cy="404.54001"
       r="3.8587" />
    <radialGradient
       id="radialGradient10465"
       gradientUnits="userSpaceOnUse"
       cy="404.54001"
       cx="357.64999"
       gradientTransform="matrix(1,0,0,0.54286,0,184.93)"
       r="3.8587">
      <stop
         id="stop6426"
         stop-color="#f9f9f9"
         offset="0" />
      <stop
         id="stop6428"
         stop-color="#f9f9f9"
         stop-opacity="0"
         offset="1" />
    </radialGradient>
    <radialGradient
       inkscape:collect="always"
       xlink:href="#radialGradient10465"
       id="radialGradient148"
       gradientUnits="userSpaceOnUse"
       gradientTransform="matrix(1,0,0,0.54286,0,184.93)"
       cx="357.64999"
       cy="404.54001"
       r="3.8587" />
    <radialGradient
       id="radialGradient174"
       gradientUnits="userSpaceOnUse"
       cy="404.54001"
       cx="357.64999"
       gradientTransform="matrix(1,0,0,0.54286,0,184.93)"
       r="3.8587">
      <stop
         id="stop170"
         stop-color="#f9f9f9"
         offset="0" />
      <stop
         id="stop172"
         stop-color="#f9f9f9"
         stop-opacity="0"
         offset="1" />
    </radialGradient>
    <radialGradient
       inkscape:collect="always"
       xlink:href="#radialGradient10465"
       id="radialGradient150"
       gradientUnits="userSpaceOnUse"
       gradientTransform="matrix(1,0,0,0.54286,0,184.93)"
       cx="357.64999"
       cy="404.54001"
       r="3.8587" />
    <radialGradient
       id="radialGradient181"
       gradientUnits="userSpaceOnUse"
       cy="404.54001"
       cx="357.64999"
       gradientTransform="matrix(1,0,0,0.54286,0,184.93)"
       r="3.8587">
      <stop
         id="stop177"
         stop-color="#f9f9f9"
         offset="0" />
      <stop
         id="stop179"
         stop-color="#f9f9f9"
         stop-opacity="0"
         offset="1" />
    </radialGradient>
    <radialGradient
       inkscape:collect="always"
       xlink:href="#radialGradient10465"
       id="radialGradient152"
       gradientUnits="userSpaceOnUse"
       gradientTransform="matrix(1,0,0,0.54286,0,184.93)"
       cx="357.64999"
       cy="404.54001"
       r="3.8587" />
    <radialGradient
       id="radialGradient188"
       gradientUnits="userSpaceOnUse"
       cy="404.54001"
       cx="357.64999"
       gradientTransform="matrix(1,0,0,0.54286,0,184.93)"
       r="3.8587">
      <stop
         id="stop184"
         stop-color="#f9f9f9"
         offset="0" />
      <stop
         id="stop186"
         stop-color="#f9f9f9"
         stop-opacity="0"
         offset="1" />
    </radialGradient>
    <radialGradient
       id="radialGradient10473"
       gradientUnits="userSpaceOnUse"
       cy="432.34"
       cx="337.19"
       gradientTransform="matrix(1,0,0,0.33333,0,288.22)"
       r="45.848999">
      <stop
         id="stop7360"
         stop-color="#ccc"
         offset="0" />
      <stop
         id="stop7362"
         stop-color="#ccc"
         stop-opacity="0"
         offset="1" />
    </radialGradient>
    <radialGradient
       id="radialGradient10478"
       gradientUnits="userSpaceOnUse"
       cy="601.72998"
       cx="299.51999"
       gradientTransform="matrix(1.499,0,0,0.80106,-23.759,-17.444)"
       r="55.227001">
      <stop
         id="stop8255"
         offset="0" />
      <stop
         id="stop8257"
         stop-opacity="0"
         offset="1" />
    </radialGradient>
  </defs>
  <sodipodi:namedview
     id="base"
     pagecolor="#ffffff"
     bordercolor="#666666"
     borderopacity="1.0"
     inkscape:pageopacity="0.0"
     inkscape:pageshadow="2"
     inkscape:zoom="0.98994949"
     inkscape:cx="210.95866"
     inkscape:cy="50.639542"
     inkscape:document-units="px"
     inkscape:current-layer="layer1"
     showgrid="false"
     showguides="true"
     inkscape:guide-bbox="true"
     inkscape:snap-to-guides="false"
     inkscape:snap-text-baseline="true"
     inkscape:window-width="1366"
     inkscape:window-height="704"
     inkscape:window-x="0"
     inkscape:window-y="27"
     inkscape:window-maximized="1"
     units="px"
     scale-x="96"
     fit-margin-top="0"
     fit-margin-left="0"
     fit-margin-right="0"
     fit-margin-bottom="0">
    <sodipodi:guide
       position="58.809346,-26.705553"
       orientation="0,1"
       id="guide183"
       inkscape:locked="false" />
    <sodipodi:guide
       position="75.062321,-32.942163"
       orientation="0,1"
       id="guide185"
       inkscape:locked="false" />
  </sodipodi:namedview>
  <metadata
     id="metadata20">
    <rdf:RDF>
      <cc:Work
         rdf:about="">
        <dc:format>image/svg+xml</dc:format>
        <dc:type
           rdf:resource="http://purl.org/dc/dcmitype/StillImage" />
        <dc:title></dc:title>
      </cc:Work>
    </rdf:RDF>
  </metadata>
  <g
     inkscape:label="Ebene 1"
     inkscape:groupmode="layer"
     id="layer1"
     transform="translate(-2.0448187,-1.3131779)">
    <g
       id="g133"
       transform="matrix(0.57649753,0,0,0.57649753,0.49827424,-6.0622416)">
      <path
         inkscape:connector-curvature="0"
         style="fill:#bdbdbd;fill-rule:evenodd;stroke:#7d7d7d;stroke-width:0.66145831;stroke-miterlimit:10"
         d="m 16.772694,35.631165 h 28.442709 l -0.661459,17.19792 H 17.434152 Z"
         id="path634" />
      <path
         inkscape:connector-curvature="0"
         style="fill:#8a9ec2;fill-rule:evenodd;stroke:#7d7d7d;stroke-width:0.66145831;stroke-miterlimit:10"
         d="m 18.624777,37.615545 h 24.737484 l -0.131776,13.89062 H 18.888289 Z"
         id="path636" />
      <path
         inkscape:connector-curvature="0"
         style="fill:#bdbdbd;fill-rule:evenodd;stroke:#7d7d7d;stroke-width:0.66145831;stroke-miterlimit:10"
         d="m 17.434152,53.392645 h 27.119792 l 3.307292,10.58333 H 14.12686 Z"
         id="path638" />
      <path
         inkscape:connector-curvature="0"
         style="fill:#9c9c9c;fill-rule:evenodd;stroke:#7d7d7d;stroke-width:0.33072916;stroke-miterlimit:10"
         d="m 17.963319,55.377015 h 26.259367 l 1.653646,7.27605 H 34.63154 l -0.661458,-1.98438 H 20.740915 l -0.661459,1.98438 h -3.96875 z"
         id="path640" />
      <path
         inkscape:connector-curvature="0"
         style="fill:#9c9c9c;fill-rule:evenodd;stroke:#7d7d7d;stroke-width:0.33072916;stroke-miterlimit:10"
         d="m 21.535194,61.330145 h 11.774488 l 0.39661,1.32292 h -12.63359 z"
         id="path642" />
      <path
         inkscape:connector-curvature="0"
         style="fill:#7d7d7d;fill-rule:evenodd;stroke:#7d7d7d;stroke-width:0.33072916;stroke-miterlimit:10"
         d="m 38.336236,54.450975 c 0,0.44053 -0.793221,0.44053 -0.793221,0 0,-0.44053 0.793221,-0.44053 0.793221,0"
         id="path644" />
      <path
         inkscape:connector-curvature="0"
         style="fill:#7d7d7d;fill-rule:evenodd;stroke:#7d7d7d;stroke-width:0.33072916;stroke-miterlimit:10"
         d="m 39.791444,54.450975 c 0,0.44053 -0.794517,0.44053 -0.794517,0 0,-0.44053 0.794517,-0.44053 0.794517,0"
         id="path646" />
      <path
         inkscape:connector-curvature="0"
         style="fill:#00ff00;fill-rule:evenodd;stroke:#7d7d7d;stroke-width:0.33072916;stroke-linejoin:round;stroke-miterlimit:10"
         d="m 40.717486,54.183745 h 2.249223 v 0.5297 h -2.249223 z"
         id="path648" />
    </g>
    <text
       xml:space="preserve"
       style="font-style:normal;font-variant:normal;font-weight:normal;font-stretch:normal;font-size:3.52777767px;line-height:1;font-family:sans-serif;-inkscape-font-specification:sans-serif;text-align:start;text-anchor:start;fill:#000000;fill-opacity:1;stroke:none;stroke-width:0.30000001;stroke-linecap:square;stroke-linejoin:miter;stroke-miterlimit:4;stroke-dasharray:none;stroke-dashoffset:0;stroke-opacity:1"
       x="1.6985866"
       y="36.727299"
       id="text137"><tspan
         sodipodi:role="line"
         id="tspan135"
         x="1.6985866"
         y="36.727299"
         style="font-size:3.52777767px;stroke-width:0.30000001">Presentation Computer</tspan></text>
    <path
       style="fill:none;fill-opacity:1;stroke:#000000;stroke-width:0.5291667;stroke-linecap:square;stroke-linejoin:miter;stroke-miterlimit:4;stroke-dasharray:none;stroke-dashoffset:0;stroke-opacity:1"
       d="m 113.34209,25.892288 c 0,0 5.45921,1.09867 9.40143,1.09867 5.67948,0.13364 -1.13639,-3.80417 -0.0668,-5.14494 1.7898,-2.2436 8.95353,-1.80407 8.95353,-1.80407"
       id="path497"
       inkscape:connector-curvature="0"
       sodipodi:nodetypes="ccsc" />
    <g
       id="g179"
       transform="matrix(0.38044377,0,0,0.38044377,71.763836,-4.1212716)">
      <path
         style="fill:#cccccc;stroke:#666666;stroke-width:0.79374999"
         d="m 93.882157,74.051688 -5.371042,5.119687 c -0.6985,1.026584 0.127,2.270125 1.500187,2.177521 l 17.880548,-0.06879 c 1.21972,0.0926 2.17752,-1.373187 1.397,-2.389187 l -4.93713,-4.77044 -0.54504,-3.534833 -9.636128,-0.283104 z"
         id="path3328"
         inkscape:connector-curvature="0" />
      <path
         d="m 75.938115,36.21098 -0.0979,33.707916 c 0.600604,1.994958 1.55575,2.553229 2.883958,2.532063 l 40.954857,-0.06086 c 1.99232,-0.01588 2.54,-1.635125 2.42359,-3.339041 l 0.18256,-32.792453 c -0.0582,-2.069042 -1.14565,-2.338917 -2.71992,-2.468563 l -40.682337,0.03969 c -1.867958,0.0926 -2.725208,0.85725 -2.944812,2.38125 z"
         style="fill:#cccccc;fill-opacity:0.99219001;stroke:#666666;stroke-width:0.79374999"
         id="path3330"
         inkscape:connector-curvature="0" />
      <path
         style="fill:#999999;fill-opacity:0.99219001;stroke:#666666;stroke-width:0.52916664"
         d="m 77.057302,36.406771 -0.129645,25.937104 c 0.02117,0.896938 0.460375,1.772709 1.42875,1.875896 l 40.682333,0.06879 c 1.47638,0.166687 2.10344,-0.447146 2.14842,-1.680104 l 0.0291,-25.788936 c 0.16404,-1.497541 -1.05569,-2.053166 -2.36537,-1.944687 l -39.676921,0.09525 c -1.354667,-0.0635 -2.045229,0.4445 -2.116667,1.436687 z"
         id="path3332"
         inkscape:connector-curvature="0" />
      <path
         d="m 101.07882,68.506021 a 2.0664223,2.1125127 0 1 1 -4.132524,0 2.0664223,2.1125127 0 1 1 4.132524,0 z"
         inkscape:connector-curvature="0"
         style="fill:#999999;fill-opacity:0.99219001;stroke:#4d4d4d;stroke-width:0.52916664"
         id="path3338" />
      <path
         d="m 78.864407,36.660771 -0.06615,25.524354 H 119.2213 V 36.726917 Z"
         id="path3987"
         style="fill:#ffffff;fill-opacity:0.99219001;stroke-width:0.26458332"
         inkscape:connector-curvature="0" />
      <path
         d="m 88.950323,78.697771 c -0.08246,0.957792 0.541153,1.084792 1.301353,1.201208 l 17.051604,-0.201083 c 1.01791,-0.03969 1.86571,-0.314854 1.82189,-1.135062"
         inkscape:connector-curvature="0"
         style="fill:none;stroke:#666666;stroke-width:0.26111466"
         id="path3989" />
      <path
         style="fill:#cccccc;stroke:#666666;stroke-width:0.52916664"
         d="m 78.745344,84.005313 -4.124854,6.236229 0.07408,0.944562 c 0.148167,0.378355 0.378355,0.388938 0.629709,0.465667 l 47.056151,-0.02117 c 0.59267,-0.08996 0.52387,-0.227541 0.61912,-0.582083 l 0.0635,-0.994833 c -1.09802,-2.026709 -2.286,-4.328584 -3.29935,-6.077479 -0.10848,-0.261938 -0.34131,-0.399521 -0.57415,-0.537105 L 79.549674,83.62431 c -0.436562,-0.04233 -0.611187,0.179916 -0.804333,0.381 z"
         id="path3991"
         inkscape:connector-curvature="0" />
      <path
         style="fill:none;stroke:#666666;stroke-width:0.26458332"
         d="m 74.776594,90.146292 c 0.254,0.280458 0.433917,0.709083 0.851959,0.661458 l 46.394687,-0.0926 c 0.69586,0.08731 0.84667,-0.367771 0.77258,-0.735542"
         id="path3993"
         inkscape:connector-curvature="0" />
      <path
         style="fill:#999999;stroke:#666666;stroke-width:0.52916664"
         d="m 80.258761,84.949875 -3.214688,4.725459 28.821067,-0.09525 -0.47096,-4.818063 z"
         id="path3995"
         inkscape:connector-curvature="0" />
      <path
         d="m 106.5266,84.772604 0.37835,2.256632 h 4.53496 l -0.56621,-2.26748 z"
         inkscape:connector-curvature="0"
         style="fill:#999999;stroke:#666666;stroke-width:0.52916664"
         sodipodi:nodetypes="ccccc"
         id="path3997" />
      <path
         style="fill:#999999;stroke:#666666;stroke-width:0.52916664"
         d="m 112.29187,84.762021 1.41816,4.722813 h 7.08554 l -2.07962,-4.722813 z"
         id="path3999"
         inkscape:connector-curvature="0" />
      <path
         d="m 107.1616,87.804729 0.2831,1.614514 4.63021,0.04648 -0.47361,-1.620255 -4.4397,-0.04076 z"
         inkscape:connector-curvature="0"
         style="fill:#999999;stroke:#666666;stroke-width:0.52916664"
         id="path4001" />
    </g>
    <text
       xml:space="preserve"
       style="font-style:normal;font-variant:normal;font-weight:normal;font-stretch:normal;font-size:3.52777767px;line-height:1;font-family:sans-serif;-inkscape-font-specification:sans-serif;text-align:start;text-anchor:start;fill:#000000;fill-opacity:1;stroke:none;stroke-width:0.30000001;stroke-linecap:square;stroke-linejoin:miter;stroke-miterlimit:4;stroke-dasharray:none;stroke-dashoffset:0;stroke-opacity:1"
       x="93.357819"
       y="36.916294"
       id="text189"><tspan
         sodipodi:role="line"
         id="tspan187"
         x="93.357819"
         y="36.916294"
         style="stroke-width:0.30000001">Projecting Computer</tspan></text>
    <g
       id="g27"
       transform="matrix(0.0174123,0,0,0.0174123,58.398715,-3.5861316)">
      <path
         sodipodi:nodetypes="cccccccccc"
         inkscape:connector-curvature="0"
         id="path4391"
         d="m 362.46655,399.37379 c -80.4519,0.30312 -160.7693,30.42522 -222.3125,90.28125 l 55.9062,55.28125 c 92.2564,-89.61065 240.7455,-90.14152 333.6562,-1.15625 l 55.7813,-55.81255 C 523.48725,428.577 442.91835,399.07062 362.46655,399.37374 Z m -166.4063,145.5625 -0.125,0.0937 z"
         style="color:#000000;display:inline;overflow:visible;visibility:visible;fill:#000000;fill-opacity:1;fill-rule:nonzero;stroke:none;stroke-width:0.53149605;marker:none;enable-background:accumulate" />
      <path
         sodipodi:nodetypes="sccccsccc"
         inkscape:connector-curvature="0"
         id="path4395"
         d="m 362.37275,281.3738 c -110.9452,0.41801 -221.724,41.957 -306.593707,124.49999 l 55.468707,54.84375 c 138.9415,-134.55514 362.2624,-135.23852 502.0313,-1.375 l 56.6562,-55.78125 C 584.42125,321.6603 473.31795,280.95579 362.37275,281.3738 Z m -251.125,179.34374 -0.5625,0.53125 z"
         style="color:#000000;display:inline;overflow:visible;visibility:visible;fill:#000000;fill-opacity:1;fill-rule:nonzero;stroke:none;stroke-width:0.53149605;marker:none;enable-background:accumulate" />
      <path
         sodipodi:nodetypes="cccccccccc"
         inkscape:connector-curvature="0"
         id="path4381"
         d="m 362.34155,516.87379 c -50.088,0.18872 -100.1218,18.95343 -138.4375,56.21875 l 53.4375,52.8125 c 47.1813,-45.82127 123.1117,-46.06831 170.625,-0.5625 l 53.2192,-53.3125 c -38.6066,-36.97548 -88.7558,-55.34497 -138.8437,-55.15625 z m -85,109.03125 -0.063,0.0625 z"
         style="color:#000000;display:inline;overflow:visible;visibility:visible;fill:#000000;fill-opacity:1;fill-rule:nonzero;stroke:none;stroke-width:0.53149605;marker:none;enable-background:accumulate" />
      <path
         transform="translate(-473.54519,131.70585)"
         sodipodi:end="2.3520582"
         sodipodi:start="2.3561945"
         d="m 780.99212,634.37006 a 78.5,78.5 0 0 1 -0.0574,-110.95833 78.5,78.5 0 0 1 110.95822,-0.17211 78.5,78.5 0 0 1 0.28684,110.95798 78.5,78.5 0 0 1 -110.95762,0.40159 L 836.5,578.86218 Z"
         sodipodi:ry="78.5"
         sodipodi:rx="78.5"
         sodipodi:cy="578.86218"
         sodipodi:cx="836.5"
         id="path4411"
         style="color:#000000;display:inline;overflow:visible;visibility:visible;fill:#000000;fill-opacity:1;fill-rule:nonzero;stroke:none;stroke-width:0.53149605;marker:none;enable-background:accumulate"
         sodipodi:type="arc" />
    </g>
    <path
       style="fill:#000000;fill-opacity:1;stroke:#000000;stroke-width:0.30000001;stroke-linecap:square;stroke-linejoin:miter;stroke-miterlimit:4;stroke-dasharray:none;stroke-dashoffset:0;stroke-opacity:1"
       d="M 33.44859,16.505588 58.961983,9.7020184"
       id="path225"
       inkscape:connector-curvature="0" />
    <path
       style="fill:#000000;fill-opacity:1;stroke:#000000;stroke-width:0.30000001;stroke-linecap:square;stroke-linejoin:miter;stroke-miterlimit:4;stroke-dasharray:none;stroke-dashoffset:0;stroke-opacity:1"
       d="M 71.246208,9.1350484 95.247691,16.316598"
       id="path227"
       inkscape:connector-curvature="0" />
    <g
       id="g10518"
       transform="matrix(0.02138683,0,0,0.02138683,128.95549,10.582608)">
      <rect
         id="rect3698"
         transform="matrix(0.9441,-0.32966,0,1,0,0)"
         ry="9.4319"
         height="107.79"
         width="81.746002"
         y="698.59998"
         x="890.89001"
         style="fill-rule:evenodd" />
      <rect
         id="rect2811"
         ry="9.4319"
         transform="matrix(0.9441,-0.32966,0,1,0,0)"
         width="81.746002"
         y="664.44"
         x="360.57999"
         height="107.79"
         style="fill-rule:evenodd" />
      <path
         id="path2427"
         d="m 63.962,182.26 609.43,-96.152 310.21,144.45 -6.98,179.74 -37.79,56.58 -629.3,175.74 -235.62,-279.88 5.963,-65.09 -20.877,-19.53 4.966,-95.86 z"
         inkscape:connector-curvature="0"
         style="fill:#a4a5a9;fill-rule:evenodd;stroke:#000000;stroke-width:12.05700016" />
      <path
         id="path3302"
         d="m 64.961,216.46 226.67,214.79 v -35.8 l -226.67,-205.03 0.001,26.04 z"
         inkscape:connector-curvature="0"
         style="fill:#898d91;fill-rule:evenodd;stroke:#000000;stroke-width:11.74400043" />
      <path
         id="path4177"
         d="M 291.63,392.2 977.6,232.73 980.59,275.04 282.68,431.25 Z"
         inkscape:connector-curvature="0"
         style="fill:#898d91;fill-rule:evenodd;stroke:#000000;stroke-width:12.36999989" />
      <path
         id="path4181"
         d="m 278.66,428.71 18.03,198.8 12.83,15.14 18.93,-5.23 -24.89,-202.91 z"
         inkscape:connector-curvature="0"
         style="fill:#898d91;fill-rule:evenodd;stroke:#000000;stroke-width:12.05700016" />
      <path
         id="path5070"
         d="m 344.6,457.23 6.04,49.24 155.21,-33.35 -8.05,-50.42 z"
         inkscape:connector-curvature="0"
         style="fill:none;stroke:#000000;stroke-width:4.50880003" />
      <path
         id="path1893"
         d="m 611.13,523.61 a 59.208,56.119 0 1 1 -118.41,0 59.208,56.119 0 1 1 118.41,0 z"
         transform="matrix(1.2644,-0.1849,0,1.3506,157.45,-211.9)"
         inkscape:connector-curvature="0"
         style="fill:#1a1a1a;fill-opacity:0.88082999;fill-rule:evenodd" />
      <path
         id="path1895"
         d="m 611.13,523.61 a 59.208,56.119 0 1 1 -118.41,0 59.208,56.119 0 1 1 118.41,0 z"
         transform="matrix(1.2057,-0.17677,0,1.2912,190.21,-184.44)"
         inkscape:connector-curvature="0"
         style="fill:#808080;fill-opacity:0.88082999;fill-rule:evenodd" />
      <path
         id="path2783"
         d="m 611.13,523.61 a 59.208,56.119 0 1 1 -118.41,0 59.208,56.119 0 1 1 118.41,0 z"
         transform="matrix(1.108,-0.15949,0,1.1649,244.55,-128.31)"
         inkscape:connector-curvature="0"
         style="fill:#808080;fill-rule:evenodd" />
      <path
         id="path2785"
         d="m 611.13,523.61 a 59.208,56.119 0 1 1 -118.41,0 59.208,56.119 0 1 1 118.41,0 z"
         transform="matrix(1.0232,-0.14831,0,1.0833,291.7,-92.133)"
         inkscape:connector-curvature="0"
         style="fill:#72b0a8;fill-opacity:0.75647996;fill-rule:evenodd" />
      <path
         id="path2787"
         d="m 611.13,523.61 a 59.208,56.119 0 1 1 -118.41,0 59.208,56.119 0 1 1 118.41,0 z"
         transform="matrix(0.91243,-0.12594,0,0.9199,353.05,-19.493)"
         inkscape:connector-curvature="0"
         style="fill:#232981;fill-opacity:0.75647996;fill-rule:evenodd" />
      <path
         id="path2799"
         d="m 611.13,523.61 a 59.208,56.119 0 1 1 -118.41,0 59.208,56.119 0 1 1 118.41,0 z"
         transform="matrix(0.80816,-0.10968,0,0.8011,410.43,30.659)"
         style="opacity:0.72430001;fill:url(#radialGradient10463);fill-rule:evenodd"
         inkscape:connector-curvature="0" />
      <path
         id="rect3704"
         d="M 251.15,162.62 590.27,104.13 822.9,261.65 452.45,345.86 Z"
         inkscape:connector-curvature="0"
         style="fill:#767676;fill-rule:evenodd" />
      <path
         id="path4592"
         d="M 267.11,166.22 586.88,108.42 807.07,259.1 455.16,336.57 Z"
         inkscape:connector-curvature="0"
         style="fill:#696363;fill-rule:evenodd" />
      <path
         id="rect5479"
         d="m 676.28,263.13 83.51,-19.62 19.14,13.92 -85.25,20.25 z"
         inkscape:connector-curvature="0"
         style="fill:#333333;fill-rule:evenodd" />
      <path
         id="path5482"
         d="m 676.86,260.69 83.51,-20.35 19.14,14.44 -85.25,21.01 z"
         inkscape:connector-curvature="0"
         style="fill:#1a1a1a;fill-rule:evenodd" />
      <path
         id="path5484"
         d="m 383.04,432.34 a 45.85,15.283333 0 1 1 -91.7,0 45.85,15.283333 0 1 1 91.7,0 z"
         transform="matrix(1.1763,-0.21189,0.19198,1.2982,-0.26307,-335.36)"
         inkscape:connector-curvature="0"
         style="fill:#1a1a1a;fill-rule:evenodd" />
      <path
         id="path5486"
         d="m 383.04,432.34 a 45.85,15.283333 0 1 1 -91.7,0 45.85,15.283333 0 1 1 91.7,0 z"
         transform="matrix(0.43107,-0.072296,0.070355,0.44296,298.38,-22.784)"
         inkscape:connector-curvature="0"
         style="fill:#4d4d4d;fill-rule:evenodd" />
      <path
         id="path5497"
         d="m 383.04,432.34 a 45.85,15.283333 0 1 1 -91.7,0 45.85,15.283333 0 1 1 91.7,0 z"
         transform="matrix(0.38248,-0.065379,0.062425,0.40057,318.44,-6.6121)"
         inkscape:connector-curvature="0"
         style="fill:#999999;fill-rule:evenodd" />
      <path
         id="path6406"
         d="m 383.04,432.34 a 45.85,15.283333 0 1 1 -91.7,0 45.85,15.283333 0 1 1 91.7,0 z"
         transform="matrix(0.36629,-0.057597,0.059782,0.35289,324.96,11.288)"
         inkscape:connector-curvature="0"
         style="fill:#7f7f7f;fill-rule:evenodd" />
      <g
         id="g6432"
         transform="matrix(1.499,0,0,1.6357,-23.759,-519.66)"
         style="fill-rule:evenodd">
        <path
           id="path6408"
           d="m 361.51,404.54 a 3.86,2.0954057 0 1 1 -7.72,0 3.86,2.0954057 0 1 1 7.72,0 z"
           transform="matrix(0.96832,0.14636,-0.24969,0.99497,108.04,-52.334)"
           inkscape:connector-curvature="0"
           style="fill:#7f7f7f" />
        <path
           id="path6410"
           d="m 361.51,404.54 a 3.86,2.0954057 0 1 1 -7.72,0 3.86,2.0954057 0 1 1 7.72,0 z"
           transform="matrix(0.96832,0.14636,-0.24969,0.99497,108.04,-52.334)"
           inkscape:connector-curvature="0"
           style="fill:#21609a" />
        <path
           id="path6422"
           d="m 361.51,404.54 a 3.86,2.0954057 0 1 1 -7.72,0 3.86,2.0954057 0 1 1 7.72,0 z"
           transform="matrix(0.96832,0.14636,-0.24969,0.99497,108.04,-52.334)"
           style="fill:url(#radialGradient146)"
           inkscape:connector-curvature="0" />
      </g>
      <g
         id="g6437"
         transform="matrix(1.4858,0.21628,-0.1982,1.6213,74.721,-587.24)"
         style="fill-rule:evenodd">
        <path
           id="path6439"
           d="m 361.51,404.54 a 3.86,2.0954057 0 1 1 -7.72,0 3.86,2.0954057 0 1 1 7.72,0 z"
           transform="matrix(0.96832,0.14636,-0.24969,0.99497,108.04,-52.334)"
           inkscape:connector-curvature="0"
           style="fill:#7f7f7f" />
        <path
           id="path6441"
           d="m 361.51,404.54 a 3.86,2.0954057 0 1 1 -7.72,0 3.86,2.0954057 0 1 1 7.72,0 z"
           transform="matrix(0.96832,0.14636,-0.24969,0.99497,108.04,-52.334)"
           inkscape:connector-curvature="0"
           style="fill:#21609a" />
        <path
           id="path6443"
           d="m 361.51,404.54 a 3.86,2.0954057 0 1 1 -7.72,0 3.86,2.0954057 0 1 1 7.72,0 z"
           transform="matrix(0.96832,0.14636,-0.24969,0.99497,108.04,-52.334)"
           style="fill:url(#radialGradient148)"
           inkscape:connector-curvature="0" />
      </g>
      <g
         id="g6447"
         transform="matrix(-1.458,0.37976,0.34802,1.591,822.12,-622.46)"
         style="fill-rule:evenodd">
        <path
           id="path6449"
           d="m 361.51,404.54 a 3.86,2.0954057 0 1 1 -7.72,0 3.86,2.0954057 0 1 1 7.72,0 z"
           transform="matrix(0.96832,0.14636,-0.24969,0.99497,108.04,-52.334)"
           inkscape:connector-curvature="0"
           style="fill:#7f7f7f" />
        <path
           id="path6451"
           d="m 361.51,404.54 a 3.86,2.0954057 0 1 1 -7.72,0 3.86,2.0954057 0 1 1 7.72,0 z"
           transform="matrix(0.96832,0.14636,-0.24969,0.99497,108.04,-52.334)"
           inkscape:connector-curvature="0"
           style="fill:#21609a" />
        <path
           id="path6453"
           d="m 361.51,404.54 a 3.86,2.0954057 0 1 1 -7.72,0 3.86,2.0954057 0 1 1 7.72,0 z"
           transform="matrix(0.96832,0.14636,-0.24969,0.99497,108.04,-52.334)"
           style="fill:url(#radialGradient150)"
           inkscape:connector-curvature="0" />
      </g>
      <g
         id="g6455"
         transform="matrix(-1.3992,0.58679,0.53776,1.5268,711.95,-663.24)"
         style="fill-rule:evenodd">
        <path
           id="path6457"
           d="m 361.51,404.54 a 3.86,2.0954057 0 1 1 -7.72,0 3.86,2.0954057 0 1 1 7.72,0 z"
           transform="matrix(0.96832,0.14636,-0.24969,0.99497,108.04,-52.334)"
           inkscape:connector-curvature="0"
           style="fill:#7f7f7f" />
        <path
           id="path6459"
           d="m 361.51,404.54 a 3.86,2.0954057 0 1 1 -7.72,0 3.86,2.0954057 0 1 1 7.72,0 z"
           transform="matrix(0.96832,0.14636,-0.24969,0.99497,108.04,-52.334)"
           inkscape:connector-curvature="0"
           style="fill:#21609a" />
        <path
           id="path6461"
           d="m 361.51,404.54 a 3.86,2.0954057 0 1 1 -7.72,0 3.86,2.0954057 0 1 1 7.72,0 z"
           transform="matrix(0.96832,0.14636,-0.24969,0.99497,108.04,-52.334)"
           style="fill:url(#radialGradient152)"
           inkscape:connector-curvature="0" />
      </g>
      <path
         id="path6471"
         d="m 383.04,432.34 a 45.85,15.283333 0 1 1 -91.7,0 45.85,15.283333 0 1 1 91.7,0 z"
         transform="matrix(0.36629,-0.057597,0.059782,0.35289,324.96,11.288)"
         style="fill:url(#radialGradient10473);fill-rule:evenodd"
         inkscape:connector-curvature="0" />
      <path
         id="path7366"
         d="m 344.6,457.23 6.04,49.24 155.21,-33.35 -8.05,-50.42 z"
         style="fill:#cccccc;fill-opacity:0.75;fill-rule:evenodd;stroke:url(#radialGradient10478);stroke-width:4.50880003"
         inkscape:connector-curvature="0" />
    </g>
    <text
       xml:space="preserve"
       style="font-style:normal;font-variant:normal;font-weight:normal;font-stretch:normal;font-size:3.52777767px;line-height:1;font-family:sans-serif;-inkscape-font-specification:sans-serif;text-align:start;text-anchor:start;fill:#000000;fill-opacity:1;stroke:none;stroke-width:0.52916664;stroke-linecap:square;stroke-linejoin:miter;stroke-miterlimit:4;stroke-dasharray:none;stroke-dashoffset:0;stroke-opacity:1"
       x="49.979404"
       y="17.703342"
       id="text1306"><tspan
         sodipodi:role="line"
         id="tspan1304"
         x="49.979404"
         y="17.703342"
         style="fill:#000000;stroke:none;stroke-width:0.52916664">TCP/IP-Network</tspan></text>
    <text
       xml:space="preserve"
       style="font-style:normal;font-variant:normal;font-weight:normal;font-stretch:normal;font-size:3.52777767px;line-height:1;font-family:sans-serif;-inkscape-font-specification:sans-serif;text-align:start;text-anchor:start;fill:#000000;fill-opacity:1;stroke:none;stroke-width:0.52916664;stroke-linecap:square;stroke-linejoin:miter;stroke-miterlimit:4;stroke-dasharray:none;stroke-dashoffset:0;stroke-opacity:1"
       x="133.99507"
       y="28.761814"
       id="text1310"><tspan
         sodipodi:role="line"
         id="tspan1308"
         x="133.99507"
         y="28.761814"
         style="stroke-width:0.52916664">Projector</tspan></text>
  </g>
</svg>

